<svg width="63" height="46" viewBox="0 0 63 46" fill="none" xmlns="http://www.w3.org/2000/svg">
<g filter="url(#filter0_d)">
<path d="M29.7578 19.1533C29.7578 25.387 28.7324 30.0013 26.6816 32.9961C24.6471 35.9909 21.5059 37.4883 17.2578 37.4883C13.14 37.4883 10.0312 35.9421 7.93164 32.8496C5.84831 29.7572 4.80664 25.1917 4.80664 19.1533C4.80664 12.8545 5.82389 8.21582 7.8584 5.2373C9.8929 2.24251 13.026 0.745117 17.2578 0.745117C21.3757 0.745117 24.4844 2.30762 26.584 5.43262C28.6999 8.55762 29.7578 13.1312 29.7578 19.1533ZM12.3018 19.1533C12.3018 23.5316 12.6761 26.6729 13.4248 28.5771C14.1898 30.4652 15.4674 31.4092 17.2578 31.4092C19.0156 31.4092 20.2852 30.4489 21.0664 28.5283C21.8477 26.6077 22.2383 23.4827 22.2383 19.1533C22.2383 14.7751 21.8395 11.6338 21.042 9.72949C20.2607 7.80892 18.9993 6.84863 17.2578 6.84863C15.4837 6.84863 14.2142 7.80892 13.4492 9.72949C12.6842 11.6338 12.3018 14.7751 12.3018 19.1533ZM58.5176 37H33.5664V31.751L42.5264 22.6934C45.1794 19.9753 46.9128 18.0954 47.7266 17.0537C48.5404 15.9958 49.1263 15.0192 49.4844 14.124C49.8424 13.2288 50.0215 12.3011 50.0215 11.3408C50.0215 9.90853 49.6227 8.84245 48.8252 8.14258C48.0439 7.44271 46.9941 7.09277 45.6758 7.09277C44.2923 7.09277 42.9495 7.41016 41.6475 8.04492C40.3454 8.67969 38.9863 9.58301 37.5703 10.7549L33.4688 5.89648C35.2266 4.39909 36.6833 3.34115 37.8389 2.72266C38.9945 2.10417 40.2559 1.63216 41.623 1.30664C42.9902 0.964844 44.5202 0.793945 46.2129 0.793945C48.4427 0.793945 50.4121 1.20085 52.1211 2.01465C53.8301 2.82845 55.1566 3.96777 56.1006 5.43262C57.0446 6.89746 57.5166 8.57389 57.5166 10.4619C57.5166 12.1058 57.2236 13.652 56.6377 15.1006C56.068 16.5329 55.1729 18.0059 53.9521 19.5195C52.7477 21.0332 50.6156 23.1898 47.5557 25.9893L42.9658 30.3105V30.6523H58.5176V37Z" fill="#FFF501"/>
</g>
<defs>
<filter id="filter0_d" x="0.806641" y="0.745117" width="61.7109" height="44.7432" filterUnits="userSpaceOnUse" color-interpolation-filters="sRGB">
<feFlood flood-opacity="0" result="BackgroundImageFix"/>
<feColorMatrix in="SourceAlpha" type="matrix" values="0 0 0 0 0 0 0 0 0 0 0 0 0 0 0 0 0 0 127 0"/>
<feOffset dy="4"/>
<feGaussianBlur stdDeviation="2"/>
<feColorMatrix type="matrix" values="0 0 0 0 0 0 0 0 0 0 0 0 0 0 0 0 0 0 0.25 0"/>
<feBlend mode="normal" in2="BackgroundImageFix" result="effect1_dropShadow"/>
<feBlend mode="normal" in="SourceGraphic" in2="effect1_dropShadow" result="shape"/>
</filter>
</defs>
</svg>
