<svg width="63" height="46" viewBox="0 0 63 46" fill="none" xmlns="http://www.w3.org/2000/svg">
<g filter="url(#filter0_d)">
<path d="M29.7578 19.1533C29.7578 25.387 28.7324 30.0013 26.6816 32.9961C24.6471 35.9909 21.5059 37.4883 17.2578 37.4883C13.14 37.4883 10.0312 35.9421 7.93164 32.8496C5.84831 29.7572 4.80664 25.1917 4.80664 19.1533C4.80664 12.8545 5.82389 8.21582 7.8584 5.2373C9.8929 2.24251 13.026 0.745117 17.2578 0.745117C21.3757 0.745117 24.4844 2.30762 26.584 5.43262C28.6999 8.55762 29.7578 13.1312 29.7578 19.1533ZM12.3018 19.1533C12.3018 23.5316 12.6761 26.6729 13.4248 28.5771C14.1898 30.4652 15.4674 31.4092 17.2578 31.4092C19.0156 31.4092 20.2852 30.4489 21.0664 28.5283C21.8477 26.6077 22.2383 23.4827 22.2383 19.1533C22.2383 14.7751 21.8395 11.6338 21.042 9.72949C20.2607 7.80892 18.9993 6.84863 17.2578 6.84863C15.4837 6.84863 14.2142 7.80892 13.4492 9.72949C12.6842 11.6338 12.3018 14.7751 12.3018 19.1533ZM57.126 9.29004C57.126 11.5199 56.4505 13.416 55.0996 14.9785C53.7487 16.541 51.8525 17.6152 49.4111 18.2012V18.3477C52.292 18.7057 54.473 19.5846 55.9541 20.9844C57.4352 22.3678 58.1758 24.2396 58.1758 26.5996C58.1758 30.0339 56.9307 32.7113 54.4404 34.6318C51.9502 36.5361 48.3939 37.4883 43.7715 37.4883C39.8978 37.4883 36.4635 36.8454 33.4688 35.5596V29.1387C34.8522 29.8385 36.374 30.4082 38.0342 30.8477C39.6943 31.2871 41.3382 31.5068 42.9658 31.5068C45.4561 31.5068 47.2952 31.0837 48.4834 30.2373C49.6715 29.391 50.2656 28.0319 50.2656 26.1602C50.2656 24.4837 49.582 23.2956 48.2148 22.5957C46.8477 21.8958 44.6667 21.5459 41.6719 21.5459H38.9619V15.7598H41.7207C44.4876 15.7598 46.5059 15.4017 47.7754 14.6855C49.0612 13.9531 49.7041 12.708 49.7041 10.9502C49.7041 8.24837 48.0114 6.89746 44.626 6.89746C43.4541 6.89746 42.2578 7.09277 41.0371 7.4834C39.8327 7.87402 38.4899 8.54948 37.0088 9.50977L33.5176 4.30957C36.7728 1.96582 40.6546 0.793945 45.1631 0.793945C48.8577 0.793945 51.7712 1.54264 53.9033 3.04004C56.0518 4.53743 57.126 6.62077 57.126 9.29004Z" fill="#FFF501"/>
</g>
<defs>
<filter id="filter0_d" x="0.806641" y="0.745117" width="61.3691" height="44.7432" filterUnits="userSpaceOnUse" color-interpolation-filters="sRGB">
<feFlood flood-opacity="0" result="BackgroundImageFix"/>
<feColorMatrix in="SourceAlpha" type="matrix" values="0 0 0 0 0 0 0 0 0 0 0 0 0 0 0 0 0 0 127 0"/>
<feOffset dy="4"/>
<feGaussianBlur stdDeviation="2"/>
<feColorMatrix type="matrix" values="0 0 0 0 0 0 0 0 0 0 0 0 0 0 0 0 0 0 0.25 0"/>
<feBlend mode="normal" in2="BackgroundImageFix" result="effect1_dropShadow"/>
<feBlend mode="normal" in="SourceGraphic" in2="effect1_dropShadow" result="shape"/>
</filter>
</defs>
</svg>
