<svg width="64" height="46" viewBox="0 0 64 46" fill="none" xmlns="http://www.w3.org/2000/svg">
<g filter="url(#filter0_d)">
<path d="M29.7578 19.1533C29.7578 25.387 28.7324 30.0013 26.6816 32.9961C24.6471 35.9909 21.5059 37.4883 17.2578 37.4883C13.14 37.4883 10.0312 35.9421 7.93164 32.8496C5.84831 29.7572 4.80664 25.1917 4.80664 19.1533C4.80664 12.8545 5.82389 8.21582 7.8584 5.2373C9.8929 2.24251 13.026 0.745117 17.2578 0.745117C21.3757 0.745117 24.4844 2.30762 26.584 5.43262C28.6999 8.55762 29.7578 13.1312 29.7578 19.1533ZM12.3018 19.1533C12.3018 23.5316 12.6761 26.6729 13.4248 28.5771C14.1898 30.4652 15.4674 31.4092 17.2578 31.4092C19.0156 31.4092 20.2852 30.4489 21.0664 28.5283C21.8477 26.6077 22.2383 23.4827 22.2383 19.1533C22.2383 14.7751 21.8395 11.6338 21.042 9.72949C20.2607 7.80892 18.9993 6.84863 17.2578 6.84863C15.4837 6.84863 14.2142 7.80892 13.4492 9.72949C12.6842 11.6338 12.3018 14.7751 12.3018 19.1533ZM59.3232 29.6025H55.0264V37H47.6533V29.6025H32.4189V24.3535L48.0684 1.30664H55.0264V23.7432H59.3232V29.6025ZM47.6533 23.7432V17.6885C47.6533 16.6794 47.694 15.2145 47.7754 13.2939C47.8568 11.3734 47.9219 10.2585 47.9707 9.94922H47.7754C47.1732 11.2839 46.4489 12.5859 45.6025 13.8555L39.0596 23.7432H47.6533Z" fill="#FFF501"/>
</g>
<defs>
<filter id="filter0_d" x="0.806641" y="0.745117" width="62.5166" height="44.7432" filterUnits="userSpaceOnUse" color-interpolation-filters="sRGB">
<feFlood flood-opacity="0" result="BackgroundImageFix"/>
<feColorMatrix in="SourceAlpha" type="matrix" values="0 0 0 0 0 0 0 0 0 0 0 0 0 0 0 0 0 0 127 0"/>
<feOffset dy="4"/>
<feGaussianBlur stdDeviation="2"/>
<feColorMatrix type="matrix" values="0 0 0 0 0 0 0 0 0 0 0 0 0 0 0 0 0 0 0.25 0"/>
<feBlend mode="normal" in2="BackgroundImageFix" result="effect1_dropShadow"/>
<feBlend mode="normal" in="SourceGraphic" in2="effect1_dropShadow" result="shape"/>
</filter>
</defs>
</svg>
