<svg width="0" height="0" class="hidden">
  <symbol fill="none" xmlns="http://www.w3.org/2000/svg" viewBox="0 0 63 46" id="02">
    <g filter="url(#filter0_d)">
      <path d="M29.758 19.153c0 6.234-1.026 10.848-3.076 13.843-2.035 2.995-5.176 4.492-9.424 4.492-4.118 0-7.227-1.546-9.326-4.638-2.084-3.093-3.125-7.658-3.125-13.697 0-6.298 1.017-10.937 3.051-13.916 2.035-2.994 5.168-4.492 9.4-4.492 4.118 0 7.226 1.563 9.326 4.688 2.116 3.125 3.174 7.698 3.174 13.72zm-17.456 0c0 4.379.374 7.52 1.123 9.424.765 1.888 2.042 2.832 3.833 2.832 1.758 0 3.027-.96 3.808-2.88.782-1.921 1.172-5.046 1.172-9.376 0-4.378-.398-7.52-1.196-9.424-.781-1.92-2.043-2.88-3.784-2.88-1.774 0-3.044.96-3.809 2.88-.765 1.905-1.147 5.046-1.147 9.424zM58.518 37H33.566v-5.249l8.96-9.058c2.653-2.718 4.387-4.598 5.2-5.64.814-1.057 1.4-2.034 1.758-2.929a7.429 7.429 0 00.538-2.783c0-1.432-.4-2.499-1.197-3.198-.781-.7-1.83-1.05-3.15-1.05-1.383 0-2.725.317-4.027.952-1.303.635-2.662 1.538-4.078 2.71l-4.1-4.859c1.758-1.497 3.214-2.555 4.37-3.173a15.674 15.674 0 013.784-1.416C42.99.965 44.52.794 46.213.794c2.23 0 4.2.407 5.908 1.22 1.71.814 3.036 1.954 3.98 3.419.944 1.464 1.416 3.14 1.416 5.029 0 1.644-.293 3.19-.88 4.639-.569 1.432-1.464 2.905-2.685 4.418-1.204 1.514-3.336 3.67-6.396 6.47l-4.59 4.322v.341h15.552V37z" fill="#FFF501"></path>
    </g>
    <defs>
      <filter id="filter0_d" x=".807" y=".745" width="61.711" height="44.743" filterUnits="userSpaceOnUse" color-interpolation-filters="sRGB">
        <feFlood flood-opacity="0" result="BackgroundImageFix"></feFlood>
        <feColorMatrix in="SourceAlpha" values="0 0 0 0 0 0 0 0 0 0 0 0 0 0 0 0 0 0 127 0"></feColorMatrix>
        <feOffset dy="4"></feOffset>
        <feGaussianBlur stdDeviation="2"></feGaussianBlur>
        <feColorMatrix values="0 0 0 0 0 0 0 0 0 0 0 0 0 0 0 0 0 0 0.25 0"></feColorMatrix>
        <feBlend in2="BackgroundImageFix" result="effect1_dropShadow"></feBlend>
        <feBlend in="SourceGraphic" in2="effect1_dropShadow" result="shape"></feBlend>
      </filter>
    </defs>
  </symbol>
  <symbol fill="none" xmlns="http://www.w3.org/2000/svg" viewBox="0 0 63 46" id="03">
    <g filter="url(#filter0_d)">
      <path d="M29.758 19.153c0 6.234-1.026 10.848-3.076 13.843-2.035 2.995-5.176 4.492-9.424 4.492-4.118 0-7.227-1.546-9.326-4.638-2.084-3.093-3.125-7.658-3.125-13.697 0-6.298 1.017-10.937 3.051-13.916 2.035-2.994 5.168-4.492 9.4-4.492 4.118 0 7.226 1.563 9.326 4.688 2.116 3.125 3.174 7.698 3.174 13.72zm-17.456 0c0 4.379.374 7.52 1.123 9.424.765 1.888 2.042 2.832 3.833 2.832 1.758 0 3.027-.96 3.808-2.88.782-1.921 1.172-5.046 1.172-9.376 0-4.378-.398-7.52-1.196-9.424-.781-1.92-2.043-2.88-3.784-2.88-1.774 0-3.044.96-3.809 2.88-.765 1.905-1.147 5.046-1.147 9.424zM57.126 9.29c0 2.23-.675 4.126-2.026 5.689-1.351 1.562-3.248 2.636-5.689 3.222v.147c2.881.358 5.062 1.237 6.543 2.636 1.481 1.384 2.222 3.256 2.222 5.616 0 3.434-1.245 6.111-3.736 8.032-2.49 1.904-6.046 2.856-10.668 2.856-3.874 0-7.308-.643-10.303-1.928v-6.421c1.383.7 2.905 1.27 4.565 1.709 1.66.44 3.304.659 4.932.659 2.49 0 4.33-.423 5.517-1.27 1.189-.846 1.783-2.205 1.783-4.077 0-1.676-.684-2.864-2.051-3.564-1.367-.7-3.548-1.05-6.543-1.05h-2.71V15.76h2.759c2.767 0 4.785-.358 6.054-1.075 1.286-.732 1.93-1.977 1.93-3.735 0-2.702-1.694-4.053-5.079-4.053-1.172 0-2.368.196-3.589.586-1.204.391-2.547 1.066-4.028 2.027l-3.491-5.2C36.773 1.966 40.655.794 45.163.794c3.695 0 6.608.749 8.74 2.246 2.149 1.497 3.223 3.58 3.223 6.25z" fill="#FFF501"></path>
    </g>
    <defs>
      <filter id="filter0_d" x=".807" y=".745" width="61.369" height="44.743" filterUnits="userSpaceOnUse" color-interpolation-filters="sRGB">
        <feFlood flood-opacity="0" result="BackgroundImageFix"></feFlood>
        <feColorMatrix in="SourceAlpha" values="0 0 0 0 0 0 0 0 0 0 0 0 0 0 0 0 0 0 127 0"></feColorMatrix>
        <feOffset dy="4"></feOffset>
        <feGaussianBlur stdDeviation="2"></feGaussianBlur>
        <feColorMatrix values="0 0 0 0 0 0 0 0 0 0 0 0 0 0 0 0 0 0 0.25 0"></feColorMatrix>
        <feBlend in2="BackgroundImageFix" result="effect1_dropShadow"></feBlend>
        <feBlend in="SourceGraphic" in2="effect1_dropShadow" result="shape"></feBlend>
      </filter>
    </defs>
  </symbol>
  <symbol fill="none" xmlns="http://www.w3.org/2000/svg" viewBox="0 0 64 46" id="04">
    <g filter="url(#filter0_d)">
      <path d="M29.758 19.153c0 6.234-1.026 10.848-3.076 13.843-2.035 2.995-5.176 4.492-9.424 4.492-4.118 0-7.227-1.546-9.326-4.638-2.084-3.093-3.125-7.658-3.125-13.697 0-6.298 1.017-10.937 3.051-13.916 2.035-2.994 5.168-4.492 9.4-4.492 4.118 0 7.226 1.563 9.326 4.688 2.116 3.125 3.174 7.698 3.174 13.72zm-17.456 0c0 4.379.374 7.52 1.123 9.424.765 1.888 2.042 2.832 3.833 2.832 1.758 0 3.027-.96 3.808-2.88.782-1.921 1.172-5.046 1.172-9.376 0-4.378-.398-7.52-1.196-9.424-.781-1.92-2.043-2.88-3.784-2.88-1.774 0-3.044.96-3.809 2.88-.765 1.905-1.147 5.046-1.147 9.424zm47.021 10.45h-4.297V37h-7.373v-7.398H32.42v-5.248L48.07 1.307h6.957v22.436h4.297v5.86zm-11.67-5.86V17.69c0-1.01.041-2.475.122-4.395.082-1.92.147-3.036.196-3.345h-.196a27.223 27.223 0 01-2.172 3.906l-6.543 9.888h8.593z" fill="#FFF501"></path>
    </g>
    <defs>
      <filter id="filter0_d" x=".807" y=".745" width="62.517" height="44.743" filterUnits="userSpaceOnUse" color-interpolation-filters="sRGB">
        <feFlood flood-opacity="0" result="BackgroundImageFix"></feFlood>
        <feColorMatrix in="SourceAlpha" values="0 0 0 0 0 0 0 0 0 0 0 0 0 0 0 0 0 0 127 0"></feColorMatrix>
        <feOffset dy="4"></feOffset>
        <feGaussianBlur stdDeviation="2"></feGaussianBlur>
        <feColorMatrix values="0 0 0 0 0 0 0 0 0 0 0 0 0 0 0 0 0 0 0.25 0"></feColorMatrix>
        <feBlend in2="BackgroundImageFix" result="effect1_dropShadow"></feBlend>
        <feBlend in="SourceGraphic" in2="effect1_dropShadow" result="shape"></feBlend>
      </filter>
    </defs>
  </symbol>
  <symbol fill="none" xmlns="http://www.w3.org/2000/svg" viewBox="0 0 57 46" id="01">
    <g filter="url(#filter0_d)">
      <path d="M29.758 19.153c0 6.234-1.026 10.848-3.076 13.843-2.035 2.995-5.176 4.492-9.424 4.492-4.118 0-7.227-1.546-9.326-4.638-2.084-3.093-3.125-7.658-3.125-13.697 0-6.298 1.017-10.937 3.051-13.916 2.035-2.994 5.168-4.492 9.4-4.492 4.118 0 7.226 1.563 9.326 4.688 2.116 3.125 3.174 7.698 3.174 13.72zm-17.456 0c0 4.379.374 7.52 1.123 9.424.765 1.888 2.042 2.832 3.833 2.832 1.758 0 3.027-.96 3.808-2.88.782-1.921 1.172-5.046 1.172-9.376 0-4.378-.398-7.52-1.196-9.424-.781-1.92-2.043-2.88-3.784-2.88-1.774 0-3.044.96-3.809 2.88-.765 1.905-1.147 5.046-1.147 9.424zM52.219 37h-7.544V16.346l.073-3.394.122-3.71c-1.253 1.252-2.124 2.074-2.612 2.465l-4.102 3.296-3.637-4.541 11.499-9.155h6.2V37z" fill="#FFF501"></path>
    </g>
    <defs>
      <filter id="filter0_d" x=".807" y=".745" width="55.412" height="44.743" filterUnits="userSpaceOnUse" color-interpolation-filters="sRGB">
        <feFlood flood-opacity="0" result="BackgroundImageFix"></feFlood>
        <feColorMatrix in="SourceAlpha" values="0 0 0 0 0 0 0 0 0 0 0 0 0 0 0 0 0 0 127 0"></feColorMatrix>
        <feOffset dy="4"></feOffset>
        <feGaussianBlur stdDeviation="2"></feGaussianBlur>
        <feColorMatrix values="0 0 0 0 0 0 0 0 0 0 0 0 0 0 0 0 0 0 0.25 0"></feColorMatrix>
        <feBlend in2="BackgroundImageFix" result="effect1_dropShadow"></feBlend>
        <feBlend in="SourceGraphic" in2="effect1_dropShadow" result="shape"></feBlend>
      </filter>
    </defs>
  </symbol>
</svg>