<svg width="83" height="83" viewBox="0 0 83 83" fill="none" xmlns="http://www.w3.org/2000/svg">
<path d="M77.1897 37.5061L75.0403 28.9086C75.6279 28.7838 76.0688 28.2624 76.0688 27.6378V26.2516C76.0688 23.2419 73.6202 20.7934 70.6106 20.7934H60.8205V17.9341C60.8205 16.4531 59.6157 15.2483 58.1347 15.2483H8.23062C6.74959 15.2483 5.54479 16.4531 5.54479 17.9341V41.5C5.54479 42.2176 6.1266 42.7996 6.84442 42.7996C7.56208 42.7996 8.14405 42.2178 8.14405 41.5V17.9341C8.14405 17.8863 8.18279 17.8476 8.23062 17.8476H58.1345C58.1824 17.8476 58.2211 17.8863 58.2211 17.9341V41.5003C58.2211 42.2179 58.8029 42.7999 59.5207 42.7999C60.2384 42.7999 60.8204 42.2181 60.8204 41.5003V40.027H76.1509C76.1522 40.027 76.1531 40.0274 76.1543 40.0274C76.1556 40.0274 76.1567 40.0272 76.1579 40.0272C78.0443 40.0285 79.6461 41.2667 80.1963 42.9729H76.1553C75.4376 42.9729 74.8556 43.5547 74.8556 44.2725V47.0449C74.8556 49.2903 76.6823 51.1169 78.9277 51.1169H80.4006V56.835H77.0024C75.8862 53.6118 72.8221 51.2901 69.2241 51.2901C65.6261 51.2901 62.5619 53.6118 61.4458 56.835H60.82V47.0447C60.82 46.3271 60.2382 45.7451 59.5204 45.7451C58.8027 45.7451 58.2208 46.3269 58.2208 47.0447V56.8347H31.2574C30.1412 53.6115 27.0771 51.2897 23.4791 51.2897C19.8811 51.2897 16.8169 53.6115 15.7008 56.8347H8.23062C8.18279 56.8347 8.14405 56.7959 8.14405 56.7481V53.889H13.7756C14.4932 53.889 15.0752 53.3072 15.0752 52.5894C15.0752 51.8716 14.4934 51.2897 13.7756 51.2897H1.29963C0.581973 51.2897 0 51.8716 0 52.5894C0 53.3072 0.581811 53.889 1.29963 53.889H5.54495V56.7481C5.54495 58.2292 6.74975 59.434 8.23078 59.434H15.2508C15.2504 59.4628 15.2485 59.4915 15.2485 59.5205C15.2485 64.0589 18.9409 67.7511 23.4791 67.7511C28.0174 67.7511 31.7097 64.0589 31.7097 59.5205C31.7097 59.4913 31.7078 59.4628 31.7075 59.434H60.9958C60.9954 59.4628 60.9935 59.4915 60.9935 59.5205C60.9935 64.0589 64.6859 67.7511 69.2241 67.7511C73.7624 67.7511 77.4547 64.0589 77.4547 59.5205C77.4547 59.4913 77.4528 59.4628 77.4525 59.434H81.7002C82.4179 59.434 82.9998 58.8521 82.9998 58.1343V44.2722C83 40.8497 80.4748 38.0062 77.1897 37.5061ZM60.8205 23.3925H70.6106C72.1871 23.3925 73.4697 24.6751 73.4697 26.2516V26.3382H60.8205V23.3925ZM60.8205 37.4279V28.9373H72.3684L74.491 37.4279H60.8205ZM23.4791 65.1524C20.3739 65.1524 17.8476 62.6262 17.8476 59.5208C17.8476 56.4155 20.3739 53.8893 23.4791 53.8893C26.5843 53.8893 29.1106 56.4155 29.1106 59.5208C29.1106 62.6262 26.5843 65.1524 23.4791 65.1524ZM69.2244 65.1524C66.1192 65.1524 63.5929 62.6262 63.5929 59.5208C63.5929 56.4155 66.1192 53.8893 69.2244 53.8893C72.3296 53.8893 74.8559 56.4155 74.8559 59.5208C74.8559 62.6262 72.3296 65.1524 69.2244 65.1524ZM80.4009 48.5177H78.928C78.1158 48.5177 77.455 47.8569 77.455 47.0447V45.5718H80.4007V48.5177H80.4009Z" fill="#FFF501" fill-opacity="0.68"/>
<path d="M23.4791 56.8351C21.9981 56.8351 20.7933 58.0399 20.7933 59.5209C20.7933 61.002 21.9981 62.2068 23.4791 62.2068C24.9601 62.2068 26.1649 61.002 26.1649 59.5209C26.1649 58.0399 24.9601 56.8351 23.4791 56.8351Z" fill="#FFF501" fill-opacity="0.68"/>
<path d="M69.2244 56.8351C67.7434 56.8351 66.5386 58.0399 66.5386 59.5209C66.5386 61.002 67.7434 62.2068 69.2244 62.2068C70.7055 62.2068 71.9103 61.002 71.9103 59.5209C71.9103 58.0399 70.7055 56.8351 69.2244 56.8351Z" fill="#FFF501" fill-opacity="0.68"/>
<path d="M53.9759 51.2903H34.5689C33.8512 51.2903 33.2692 51.8721 33.2692 52.5899C33.2692 53.3077 33.851 53.8895 34.5689 53.8895H53.9759C54.6936 53.8895 55.2756 53.3077 55.2756 52.5899C55.2756 51.8721 54.6938 51.2903 53.9759 51.2903Z" fill="#FFF501" fill-opacity="0.68"/>
<path d="M20.7067 45.7453H4.07202C3.35436 45.7453 2.77239 46.3271 2.77239 47.0449C2.77239 47.7628 3.3542 48.3446 4.07202 48.3446H20.7067C21.4244 48.3446 22.0063 47.7628 22.0063 47.0449C22.0063 46.3271 21.4244 45.7453 20.7067 45.7453Z" fill="#FFF501" fill-opacity="0.68"/>
<path d="M45.1914 28.1049C44.684 27.5975 43.861 27.5975 43.3536 28.1051L31.7965 39.662L25.7843 33.6498C25.2767 33.1423 24.4539 33.1423 23.9465 33.6498C23.4389 34.1574 23.4389 34.9801 23.9465 35.4877L30.8776 42.4188C31.1313 42.6727 31.464 42.7995 31.7965 42.7995C32.1289 42.7995 32.4618 42.6727 32.7153 42.4188L45.1912 29.9429C45.6988 29.4352 45.6988 28.6125 45.1914 28.1049Z" fill="#FFF501" fill-opacity="0.68"/>
</svg>
