<svg width="76" height="76" viewBox="0 0 76 76" fill="none" xmlns="http://www.w3.org/2000/svg">
<g clip-path="url(#clip0)">
<path d="M46.596 30.9404L35.1769 41.7259L29.6966 36.0878C29.0891 35.4623 28.0887 35.4481 27.4638 36.0557C26.8383 36.6638 26.8241 37.6636 27.4316 38.2891L34.0045 45.0365C34.6152 45.6508 35.602 45.6718 36.238 45.0835L48.7979 33.2369C49.1029 32.9493 49.2811 32.5521 49.2928 32.1332C49.3046 31.7144 49.1493 31.3079 48.861 31.0035C48.2497 30.3681 47.2419 30.3403 46.596 30.9404Z" fill="#FFF501" fill-opacity="0.68"/>
<path d="M38.1225 14.3417C25.072 14.3417 14.4603 24.9533 14.4603 38.0038C14.4603 51.0549 25.072 61.6666 38.1225 61.6666C51.1736 61.6666 61.7852 51.0549 61.7852 38.0038C61.7852 24.9533 51.1736 14.3417 38.1225 14.3417ZM38.1225 58.4989C26.8142 58.4989 17.628 49.2966 17.628 38.0038C17.628 26.711 26.8142 17.5093 38.1225 17.5093C49.4419 17.5093 58.6176 26.685 58.6176 38.0038C58.6176 49.3226 49.4419 58.4989 38.1225 58.4989Z" fill="#FFF501" fill-opacity="0.68"/>
<path d="M70.6863 29.2928L71.2091 19.9005C71.2456 19.2701 70.9028 18.678 70.338 18.3959L61.9752 14.1672L57.7465 5.80445C57.4588 5.24455 56.8705 4.90365 56.2419 4.93335L46.8336 5.44067L38.9936 0.261056C38.4653 -0.0872627 37.7804 -0.0872627 37.2514 0.261056L29.4114 5.44067L20.0198 4.91788C19.3888 4.88076 18.7973 5.22351 18.5152 5.78899L14.2859 14.1517L5.92376 18.3804C5.36323 18.6675 5.02295 19.2559 5.05265 19.8851L5.57482 29.2773L0.395822 37.1172C0.0475029 37.6456 0.0475029 38.3305 0.395822 38.8594L5.55935 46.7149L5.03656 56.1071C5.00006 56.7375 5.34219 57.3296 5.90767 57.6117L14.2704 61.8404L18.4991 70.2032C18.7862 70.7637 19.3745 71.104 20.0037 71.0743L29.396 70.5515L37.2359 75.7305C37.7612 76.0899 38.4529 76.0899 38.9781 75.7305L46.8181 70.5515L56.2103 71.0743C56.8408 71.1108 57.4322 70.768 57.715 70.2032L61.9437 61.8404L70.3064 57.6117C70.8663 57.324 71.2072 56.7363 71.1775 56.1071L70.6547 46.7149L75.8337 38.8749C76.182 38.3466 76.182 37.6611 75.8337 37.1327L70.6863 29.2928ZM67.7401 45.4162C67.5471 45.6996 67.4574 46.0405 67.4871 46.3826L67.9777 55.2675L60.0746 59.2587C59.7733 59.4096 59.5289 59.6546 59.378 59.9559L55.3862 67.859L46.5013 67.3684C46.1611 67.356 45.8251 67.4438 45.5349 67.6214L38.1225 72.5158L30.7107 67.6214C30.4533 67.4475 30.1502 67.3535 29.8396 67.3523H29.7604L20.8749 67.8435L16.8837 59.9398C16.7328 59.6385 16.4884 59.3942 16.1865 59.2432L8.26733 55.2675L8.75856 46.3826C8.77094 46.0424 8.68246 45.7064 8.5049 45.4162L3.61112 38.0038L8.5049 30.5914C8.69855 30.3086 8.78826 29.9671 8.75856 29.6256L8.26733 20.7401L16.171 16.749C16.4723 16.598 16.7167 16.3536 16.8676 16.0523L20.8588 8.14864L29.7443 8.63988C30.084 8.65163 30.4199 8.56378 30.7107 8.38622L38.1225 3.49244L45.5349 8.38622C45.8183 8.57987 46.1598 8.66958 46.5013 8.63988L55.3862 8.14864L59.378 16.0523C59.5289 16.3536 59.7733 16.598 60.0746 16.749L67.9777 20.7401L67.4871 29.6256C67.4747 29.9653 67.5632 30.3012 67.7401 30.5914L72.6345 38.0038L67.7401 45.4162Z" fill="#FFF501" fill-opacity="0.68"/>
</g>
<defs>
<clipPath id="clip0">
<rect width="76" height="76" fill="white"/>
</clipPath>
</defs>
</svg>
