<svg width="82" height="82" viewBox="0 0 82 82" fill="none" xmlns="http://www.w3.org/2000/svg">
<g clip-path="url(#clip0)">
<path d="M63.0853 43.9282H19.1572C17.5402 43.9282 16.2283 45.2392 16.2283 46.8569C16.2283 48.4744 17.5402 49.7852 19.1572 49.7852H63.0853C64.7027 49.7852 66.0138 48.4744 66.0138 46.8569C66.0138 45.2392 64.7027 43.9282 63.0853 43.9282Z" fill="#FFF501" fill-opacity="0.68"/>
<path d="M57.5751 4.12467C57.4288 1.80599 55.5061 0.000188281 53.1822 0H29.0527C26.7344 0 24.8141 1.80298 24.6691 4.11732L22.1861 40.9991H60.0561L57.5751 4.12467ZM29.4072 5.85704H52.8353V8.78593H29.4072V5.85704ZM27.9429 14.643H54.2994V17.5713H27.9429V14.643ZM55.7639 35.143H26.4783V32.2143H55.7639V35.143ZM55.7639 26.357H26.4783V23.4289H55.7639V26.357Z" fill="#FFF501" fill-opacity="0.68"/>
<path d="M55.7639 76.1422H44.05C43.2409 76.1422 42.5861 75.4868 42.5861 74.6781V52.7141H39.6572V74.6781C39.6572 75.4868 39.0014 76.1422 38.193 76.1422H26.4783C24.9868 76.1343 23.7272 77.2481 23.5536 78.7297C23.38 80.2109 24.3472 81.5873 25.8007 81.9239C27.2537 82.2607 28.7277 81.4511 29.224 80.0449C29.4315 79.4618 29.9828 79.0713 30.6018 79.0711H51.6409C52.2594 79.0713 52.8109 79.4618 53.0182 80.0449C53.5147 81.4511 54.9889 82.2607 56.4415 81.9239C57.8954 81.5873 58.8634 80.2109 58.6886 78.7297C58.5154 77.2481 57.2554 76.1343 55.7639 76.1422Z" fill="#FFF501" fill-opacity="0.68"/>
<path d="M16.4911 61.4749L15.9662 58.5963L30.8713 55.8836V52.7141H33.8V57.1068C33.7985 57.8138 33.2941 58.4197 32.598 58.5464L16.4911 61.4749Z" fill="#FFF501" fill-opacity="0.68"/>
</g>
<defs>
<clipPath id="clip0">
<rect width="82" height="82" fill="white"/>
</clipPath>
</defs>
</svg>
