<svg width="76" height="76" viewBox="0 0 76 76" fill="none" xmlns="http://www.w3.org/2000/svg">
<path d="M38 76C27.8498 76 18.3071 72.0474 11.1298 64.8702C3.95259 57.6929 0 48.1502 0 38C0 27.8498 3.95274 18.3072 11.1298 11.1298C18.3069 3.95245 27.8498 0 38 0C48.1502 0 57.6929 3.95259 64.8702 11.1298C72.0474 18.3071 76 27.8498 76 38C76 48.1502 72.0473 57.6928 64.8702 64.8702C57.6931 72.0476 48.1502 76 38 76ZM38 4.75C19.6659 4.75 4.75 19.6659 4.75 38C4.75 56.3341 19.6659 71.25 38 71.25C56.3341 71.25 71.25 56.3341 71.25 38C71.25 19.6659 56.3341 4.75 38 4.75Z" fill="#B4C200"/>
<path d="M38 35.625C34.7261 35.625 32.0625 32.9614 32.0625 29.6875C32.0625 26.4136 34.7261 23.75 38 23.75C41.2739 23.75 43.9375 26.4136 43.9375 29.6875C43.9375 30.9991 45.0008 32.0625 46.3125 32.0625C47.6242 32.0625 48.6875 30.9991 48.6875 29.6875C48.6875 24.6108 45.1283 20.3526 40.375 19.2693V16.625C40.375 15.3134 39.3117 14.25 38 14.25C36.6883 14.25 35.625 15.3134 35.625 16.625V19.2693C30.8717 20.3526 27.3125 24.6108 27.3125 29.6875C27.3125 35.5806 32.1069 40.375 38 40.375C41.2739 40.375 43.9375 43.0386 43.9375 46.3125C43.9375 49.5864 41.2739 52.25 38 52.25C34.7261 52.25 32.0625 49.5864 32.0625 46.3125C32.0625 45.0009 30.9992 43.9375 29.6875 43.9375C28.3758 43.9375 27.3125 45.0009 27.3125 46.3125C27.3125 51.3892 30.8717 55.6474 35.625 56.7307V59.375C35.625 60.6866 36.6883 61.75 38 61.75C39.3117 61.75 40.375 60.6866 40.375 59.375V56.7307C45.1283 55.6474 48.6875 51.3892 48.6875 46.3125C48.6875 40.4194 43.8931 35.625 38 35.625Z" fill="#B4C200"/>
</svg>
