<svg width="55" height="55" viewBox="0 0 55 55" fill="none" xmlns="http://www.w3.org/2000/svg">
<g filter="url(#filter0_d)">
<circle cx="27.5" cy="23.5" r="23.5" fill="#FFF501"/>
</g>
<path d="M27.5 11C22.1082 11 17.7216 15.3865 17.7216 20.7783C17.7216 27.4697 26.4723 37.293 26.8449 37.7079C27.1948 38.0977 27.8058 38.097 28.1551 37.7079C28.5277 37.293 37.2784 27.4697 37.2784 20.7783C37.2783 15.3865 32.8918 11 27.5 11ZM27.5 25.6981C24.7872 25.6981 22.5803 23.4911 22.5803 20.7783C22.5803 18.0656 24.7873 15.8586 27.5 15.8586C30.2127 15.8586 32.4196 18.0656 32.4196 20.7784C32.4196 23.4911 30.2127 25.6981 27.5 25.6981Z" fill="black" fill-opacity="0.7"/>
<defs>
<filter id="filter0_d" x="0" y="0" width="55" height="55" filterUnits="userSpaceOnUse" color-interpolation-filters="sRGB">
<feFlood flood-opacity="0" result="BackgroundImageFix"/>
<feColorMatrix in="SourceAlpha" type="matrix" values="0 0 0 0 0 0 0 0 0 0 0 0 0 0 0 0 0 0 127 0"/>
<feOffset dy="4"/>
<feGaussianBlur stdDeviation="2"/>
<feColorMatrix type="matrix" values="0 0 0 0 0 0 0 0 0 0 0 0 0 0 0 0 0 0 0.25 0"/>
<feBlend mode="normal" in2="BackgroundImageFix" result="effect1_dropShadow"/>
<feBlend mode="normal" in="SourceGraphic" in2="effect1_dropShadow" result="shape"/>
</filter>
</defs>
</svg>
